<?xml version="1.0" encoding="UTF-8" standalone="no"?>
<svg
   width="16"
   height="17"
   viewBox="0 0 16 17"
   fill="none"
   version="1.1"
   id="svg1"
   sodipodi:docname="FiCopy.svg"
   inkscape:version="1.3.2 (091e20e, 2023-11-25)"
   xmlns:inkscape="http://www.inkscape.org/namespaces/inkscape"
   xmlns:sodipodi="http://sodipodi.sourceforge.net/DTD/sodipodi-0.dtd"
   xmlns="http://www.w3.org/2000/svg"
   xmlns:svg="http://www.w3.org/2000/svg">
  <defs
     id="defs1" />
  <sodipodi:namedview
     id="namedview1"
     pagecolor="#ffffff"
     bordercolor="#000000"
     borderopacity="0.25"
     inkscape:showpageshadow="2"
     inkscape:pageopacity="0.0"
     inkscape:pagecheckerboard="0"
     inkscape:deskcolor="#d1d1d1"
     inkscape:zoom="13.882353"
     inkscape:cx="7.9957627"
     inkscape:cy="8.5"
     inkscape:window-width="1920"
     inkscape:window-height="1027"
     inkscape:window-x="0"
     inkscape:window-y="25"
     inkscape:window-maximized="1"
     inkscape:current-layer="svg1" />
  <g
     id="FiCopy"
     style="fill:#e5e7eb;fill-opacity:1">
    <path
       id="Vector (Stroke)"
       fill-rule="evenodd"
       clip-rule="evenodd"
       d="M7.33325 7.16659C6.96506 7.16659 6.66659 7.46506 6.66659 7.83325V13.8333C6.66659 14.2014 6.96506 14.4999 7.33325 14.4999H13.3333C13.7014 14.4999 13.9999 14.2014 13.9999 13.8333V7.83325C13.9999 7.46506 13.7014 7.16659 13.3333 7.16659H7.33325ZM5.33325 7.83325C5.33325 6.72868 6.22868 5.83325 7.33325 5.83325H13.3333C14.4378 5.83325 15.3333 6.72868 15.3333 7.83325V13.8333C15.3333 14.9378 14.4378 15.8333 13.3333 15.8333H7.33325C6.22868 15.8333 5.33325 14.9378 5.33325 13.8333V7.83325Z"
       fill="#28B56F"
       style="fill:#e5e7eb;fill-opacity:1" />
    <path
       id="Vector (Stroke)_2"
       fill-rule="evenodd"
       clip-rule="evenodd"
       d="M2.66675 2.50008C2.48994 2.50008 2.32037 2.57032 2.19534 2.69534C2.07032 2.82037 2.00008 2.98994 2.00008 3.16675V9.16675C2.00008 9.34356 2.07032 9.51313 2.19534 9.63815C2.32037 9.76318 2.48994 9.83342 2.66675 9.83342H3.33341C3.7016 9.83342 4.00008 10.1319 4.00008 10.5001C4.00008 10.8683 3.7016 11.1667 3.33341 11.1667H2.66675C2.13631 11.1667 1.62761 10.956 1.25253 10.581C0.877462 10.2059 0.666748 9.69718 0.666748 9.16675V3.16675C0.666748 2.63632 0.877462 2.12761 1.25253 1.75253C1.62761 1.37746 2.13632 1.16675 2.66675 1.16675H8.66675C9.19718 1.16675 9.70589 1.37746 10.081 1.75253C10.456 2.12761 10.6667 2.63631 10.6667 3.16675V3.83341C10.6667 4.2016 10.3683 4.50008 10.0001 4.50008C9.63189 4.50008 9.33342 4.2016 9.33342 3.83341V3.16675C9.33342 2.98994 9.26318 2.82037 9.13815 2.69534C9.01313 2.57032 8.84356 2.50008 8.66675 2.50008H2.66675Z"
       fill="#28B56F"
       style="fill:#e5e7eb;fill-opacity:1" />
  </g>
</svg>
